<?xml version="1.0" encoding="utf-8"?>
<!-- Generator: Adobe Illustrator 23.0.3, SVG Export Plug-In . SVG Version: 6.00 Build 0)  -->
<svg version="1.1" id="Layer_1" xmlns="http://www.w3.org/2000/svg" xmlns:xlink="http://www.w3.org/1999/xlink" x="0px" y="0px"
	  viewBox="0 0 24 24" style="enable-background:new 0 0 24 24;" xml:space="preserve">
	<linearGradient id="SVGID_1_" gradientUnits="userSpaceOnUse" x1="0.8003" y1="12" x2="23.1997" y2="12">
	<stop  offset="0" style="fill:#1245C6" />
	<stop  offset="1" style="fill:#9909B7"/>
</linearGradient>
<path class="st0" d="M14,15.1c1.4-0.6,2.4-1.3,3.2-2.3c0.8-1,1.2-2.1,1.2-3.2c0-1.2-0.4-2.2-1.2-3.2c-0.8-1-1.9-1.8-3.2-2.3
	c-1.4-0.6-2.8-0.9-4.4-0.9C8,3.2,6.5,3.5,5.2,4.1C3.8,4.6,2.8,5.4,2,6.4c-0.8,1-1.2,2.1-1.2,3.2c0,1,0.3,1.9,0.9,2.8
	c0.6,0.9,1.4,1.6,2.4,2.2C4,14.8,4,15,3.9,15.2c-0.1,0.2-0.2,0.3-0.3,0.5c-0.1,0.2-0.2,0.3-0.3,0.4c-0.1,0.1-0.2,0.2-0.3,0.4
	c-0.2,0.2-0.2,0.3-0.3,0.3c0,0,0,0-0.1,0.1c0,0-0.1,0.1-0.1,0.1c0,0,0,0,0,0.1c0,0,0,0.1,0,0.1l0,0.1c0,0,0,0,0,0.1c0,0,0,0.1,0,0.1
	c0,0,0,0.1,0,0.1c0,0.1,0.1,0.2,0.1,0.3c0.1,0.1,0.2,0.1,0.3,0.1h0c0.4-0.1,0.8-0.1,1.1-0.2c1.3-0.3,2.4-0.9,3.5-1.6
	C8.2,15.9,8.9,16,9.6,16C11.2,16,12.7,15.7,14,15.1z M7,14.1l-0.6,0.4C6.2,14.6,6,14.8,5.7,15l0.4-1.1l-1.2-0.7
	c-0.8-0.5-1.4-1-1.9-1.6c-0.4-0.6-0.7-1.3-0.7-2c0-0.9,0.3-1.6,1-2.4C4,6.5,4.9,5.9,6,5.4C7.1,5,8.3,4.8,9.6,4.8s2.5,0.2,3.6,0.7
	c1.1,0.4,2,1,2.6,1.8c0.7,0.7,1,1.5,1,2.4c0,0.8-0.3,1.6-1,2.4c-0.7,0.7-1.5,1.3-2.6,1.8c-1.1,0.4-2.3,0.6-3.6,0.6
	c-0.6,0-1.3-0.1-1.9-0.2L7,14.1z M19.9,17.8c0.1,0.2,0.2,0.4,0.3,0.5c0.1,0.2,0.2,0.3,0.3,0.5c0.1,0.2,0.2,0.3,0.3,0.4
	c0.1,0.1,0.2,0.2,0.3,0.4c0.1,0.2,0.2,0.3,0.3,0.3c0,0,0,0,0.1,0.1c0,0,0,0,0.1,0.1c0,0,0,0,0.1,0.1c0,0,0,0.1,0,0.1l0,0.1
	c0,0,0,0,0,0.1c0,0,0,0.1,0,0.1c0,0,0,0,0,0.1c0,0.1-0.1,0.2-0.2,0.3c-0.1,0.1-0.2,0.1-0.3,0.1c-0.4-0.1-0.8-0.1-1.1-0.2
	c-1.3-0.3-2.4-0.9-3.5-1.6c-0.8,0.1-1.5,0.2-2.2,0.2c-2.3,0-4.2-0.6-5.9-1.6c0.5,0,0.8,0,1.1,0c1.3,0,2.6-0.2,3.9-0.6
	c1.2-0.4,2.3-0.9,3.3-1.6c1-0.8,1.8-1.7,2.4-2.6c0.6-1,0.8-2.1,0.8-3.2c0-0.6-0.1-1.3-0.3-1.9c1.1,0.6,1.9,1.3,2.6,2.2
	c0.6,0.9,0.9,1.8,0.9,2.9c0,1-0.3,1.9-0.9,2.8C21.7,16.5,20.9,17.2,19.9,17.8z"/>
</svg>
