<?xml version="1.0" standalone="no"?>
<!DOCTYPE svg PUBLIC "-//W3C//DTD SVG 20010904//EN"
 "http://www.w3.org/TR/2001/REC-SVG-20010904/DTD/svg10.dtd">
<svg version="1.0" xmlns="http://www.w3.org/2000/svg"
 width="30.000000pt" height="30.000000pt" viewBox="0 0 512 512">
 preserveAspectRatio="xMidYMid meet">

<g transform="translate(0.000000,512.000000) scale(0.100000,-0.100000)"
fill="#000000" stroke="none">
<path d="M2370 5113 c-559 -53 -1006 -230 -1417 -562 -795 -640 -1130 -1684
-858 -2674 77 -284 211 -563 385 -808 l69 -96 -25 -50 c-78 -158 -45 -351 81
-478 231 -230 620 -122 701 195 81 319 -228 602 -541 496 -79 -27 -63 -36
-144 79 -204 292 -339 637 -398 1015 -25 159 -24 509 1 670 162 1042 953 1831
2001 1997 153 24 517 24 665 0 202 -34 185 -34 225 6 50 50 43 122 -15 152
-84 44 -521 79 -730 58z m-1354 -4189 c61 -37 104 -113 104 -184 0 -141 -141
-247 -280 -210 -61 16 -134 89 -150 150 -39 145 75 288 222 278 40 -3 70 -13
104 -34z"/>
<path d="M3431 4926 c-56 -31 -66 -99 -22 -148 24 -27 36 -33 71 -33 35 0 47
6 72 34 26 29 30 39 25 75 -10 72 -81 108 -146 72z"/>
<path d="M4110 4785 c-193 -55 -323 -237 -308 -432 22 -278 291 -458 553 -369
80 28 62 40 159 -104 200 -297 326 -624 383 -990 24 -161 24 -502 0 -660 -121
-782 -590 -1432 -1287 -1781 -446 -224 -953 -298 -1456 -213 -84 14 -95 14
-123 0 -38 -20 -51 -44 -51 -94 0 -32 6 -45 29 -65 16 -13 45 -27 63 -31 319
-59 647 -59 963 -1 595 110 1143 441 1527 920 712 891 744 2152 77 3087 l-69
97 20 33 c10 18 27 62 36 98 52 202 -62 417 -259 492 -69 27 -186 32 -257 13z
m175 -196 c79 -22 155 -124 155 -209 0 -122 -113 -228 -234 -218 -111 9 -195
93 -204 204 -4 44 1 64 22 108 49 100 151 145 261 115z"/>
<path d="M2193 4360 c-39 -23 -42 -36 -46 -168 l-2 -103 -93 -31 c-51 -17
-136 -52 -188 -77 l-94 -47 -72 73 c-78 79 -113 99 -155 88 -39 -9 -499 -468
-513 -511 -16 -47 5 -86 87 -167 l69 -68 -47 -97 c-26 -53 -61 -137 -78 -187
l-30 -90 -120 -5 c-180 -7 -165 27 -169 -392 -2 -239 1 -350 9 -370 19 -47 47
-57 169 -60 l112 -3 32 -96 c18 -53 53 -137 78 -187 l45 -90 -73 -73 c-80 -79
-100 -114 -89 -156 9 -39 468 -499 511 -513 47 -16 86 5 168 88 l69 70 81 -41
c45 -22 128 -57 186 -78 l105 -37 2 -103 c4 -133 7 -146 46 -169 30 -19 52
-20 367 -20 432 0 408 -11 413 189 l2 103 106 37 c58 21 142 56 186 78 l81 41
68 -70 c82 -83 121 -104 168 -88 43 14 502 474 511 513 11 42 -9 77 -89 156
l-73 73 45 90 c25 50 60 134 78 187 l32 96 112 3 c122 3 150 13 169 60 8 20
11 131 9 370 -4 419 11 385 -169 392 l-120 5 -30 90 c-17 50 -52 134 -78 187
l-47 97 69 68 c82 81 103 120 87 167 -14 43 -474 502 -513 511 -42 11 -77 -9
-155 -88 l-72 -73 -94 47 c-52 25 -137 60 -188 77 l-93 31 -2 103 c-4 132 -7
145 -46 168 -30 19 -52 20 -367 20 -315 0 -337 -1 -367 -20z m579 -285 c3 -97
5 -106 29 -130 17 -18 52 -33 103 -46 125 -32 305 -109 391 -168 17 -12 46
-21 69 -21 34 0 46 8 110 70 40 39 77 70 82 70 5 0 74 -65 153 -144 l145 -145
-72 -75 c-93 -98 -94 -117 -22 -243 56 -98 97 -197 135 -330 37 -128 49 -137
180 -141 l105 -4 0 -209 0 -209 -95 0 c-148 0 -149 -1 -205 -190 -30 -102 -72
-200 -126 -292 -64 -112 -62 -132 26 -222 39 -40 70 -77 70 -82 0 -5 -65 -74
-144 -153 l-145 -145 -74 71 c-88 83 -113 92 -177 59 -25 -13 -85 -44 -135
-70 -49 -26 -135 -60 -190 -77 -178 -55 -186 -58 -201 -95 -8 -20 -14 -69 -14
-124 l0 -90 -210 0 -210 0 0 90 c0 55 -6 104 -14 124 -15 37 -18 38 -204 96
-57 18 -142 53 -190 78 -48 24 -107 55 -132 68 -64 33 -89 24 -177 -59 l-74
-71 -145 145 c-79 79 -144 148 -144 153 0 5 31 42 70 82 88 90 90 110 26 222
-54 92 -96 190 -126 292 -56 189 -57 190 -205 190 l-95 0 0 209 0 209 105 4
c131 4 143 13 180 141 38 133 79 232 135 330 72 125 70 143 -22 242 l-71 76
144 145 c79 79 148 144 153 144 5 0 42 -31 82 -70 64 -62 76 -70 110 -70 23 0
52 9 69 21 86 58 290 143 431 179 22 5 51 21 65 36 22 23 24 36 27 130 l4 104
208 0 208 0 4 -105z"/>
<path d="M2451 3380 c-179 -25 -339 -106 -472 -239 -99 -99 -159 -194 -200
-316 -192 -572 275 -1153 873 -1085 450 51 779 462 728 909 -39 341 -285 627
-616 711 -87 23 -228 31 -313 20z m259 -212 c93 -21 211 -89 286 -163 127
-125 186 -267 186 -445 0 -175 -59 -319 -181 -441 -122 -122 -266 -181 -441
-181 -178 0 -320 59 -445 186 -77 78 -142 194 -166 296 -16 71 -16 209 0 280
24 102 89 218 166 296 159 161 374 223 595 172z"/>
<path d="M1602 365 c-38 -17 -66 -71 -56 -110 19 -75 110 -100 165 -46 52 53
33 135 -38 162 -30 11 -31 11 -71 -6z"/>
</g>
</svg>
